<svg width="844" height="226" viewBox="0 0 844 226" fill="none" xmlns="http://www.w3.org/2000/svg">
<rect width="72.6163" height="72.6163" transform="matrix(-0.5 0.866025 -0.5 -0.866025 242.209 162.809)" fill="#44E0D5"/>
<rect width="72.6163" height="72.6163" transform="matrix(-1 -3.85215e-08 0.5 0.866026 169.593 162.809)" fill="#00958A"/>
<rect width="72.6163" height="72.6163" transform="matrix(-0.5 0.866025 1 2.98023e-08 36.4624 99.6808)" fill="#FFA281"/>
<rect width="72.6163" height="72.6163" transform="matrix(0.5 0.866025 -1 5.16191e-08 72.7705 162.568)" fill="#FF5517"/>
<rect width="72.6163" height="72.6163" transform="matrix(-0.5 -0.866025 -0.5 0.866025 193.086 80.5807)" fill="#FF2F35"/>
<rect width="72.6163" height="72.6163" transform="matrix(-1 4.89012e-08 0.5 -0.866025 120.47 80.5807)" fill="#FF7EA5"/>
<path d="M400.49 128.121H318.445C319.15 137.524 322.207 145.008 327.613 150.572C333.02 156.057 339.955 158.799 348.418 158.799C355.001 158.799 360.447 157.232 364.757 154.098C368.988 150.963 373.808 145.165 379.215 136.702L401.548 149.161C398.1 155.038 394.456 160.092 390.616 164.324C386.776 168.477 382.662 171.925 378.274 174.668C373.886 177.332 369.145 179.291 364.052 180.545C358.958 181.799 353.434 182.425 347.478 182.425C330.395 182.425 316.682 176.94 306.338 165.97C295.995 154.921 290.823 140.267 290.823 122.009C290.823 103.907 295.838 89.2537 305.868 78.048C315.977 66.999 329.377 61.4746 346.068 61.4746C362.915 61.4746 376.237 66.8423 386.032 77.5778C395.749 88.235 400.607 103.006 400.607 121.891L400.49 128.121ZM373.337 106.493C369.654 92.3882 360.76 85.3356 346.655 85.3356C343.442 85.3356 340.426 85.845 337.605 86.8637C334.784 87.804 332.198 89.2145 329.847 91.0952C327.574 92.8975 325.615 95.0916 323.97 97.6776C322.324 100.263 321.07 103.202 320.208 106.493H373.337Z" fill="#172E44"/>
<path d="M503.906 205.021V166.322C493.405 177.058 481.416 182.425 467.938 182.425C452.501 182.425 439.688 176.744 429.501 165.382C419.236 153.941 414.103 139.64 414.103 122.479C414.103 105.083 419.236 90.5467 429.501 78.8708C439.845 67.2733 452.814 61.4746 468.408 61.4746C481.651 61.4746 493.484 66.6856 503.906 77.1077V64.6482H530.47V205.021H503.906ZM441.138 121.304C441.138 132.352 444.116 141.325 450.071 148.221C456.027 155.273 463.589 158.799 472.757 158.799C482.474 158.799 490.349 155.43 496.383 148.691C502.495 141.873 505.551 133.019 505.551 122.126C505.551 111.391 502.534 102.536 496.5 95.5618C490.467 88.7444 482.63 85.3356 472.992 85.3356C463.902 85.3356 456.301 88.7835 450.189 95.6793C444.155 102.654 441.138 111.195 441.138 121.304Z" fill="#172E44"/>
<path d="M575.066 64.6482V130.354C575.066 149.318 582.549 158.799 597.516 158.799C612.483 158.799 619.967 149.318 619.967 130.354V64.6482H646.414V130.942C646.414 140.11 645.278 148.025 643.005 154.686C640.811 160.641 637.01 166.009 631.603 170.789C622.67 178.547 611.308 182.425 597.516 182.425C583.803 182.425 572.48 178.547 563.547 170.789C558.061 166.009 554.182 160.641 551.91 154.686C549.716 149.357 548.619 141.442 548.619 130.942V64.6482H575.066Z" fill="#172E44"/>
<path d="M688.188 64.6482V179.134H661.741V64.6482H688.188ZM657.745 17.0436C657.745 12.4203 659.43 8.42386 662.799 5.05431C666.169 1.68477 670.204 0 674.906 0C679.686 0 683.761 1.68477 687.13 5.05431C690.5 8.3455 692.185 12.3811 692.185 17.1612C692.185 21.9412 690.5 26.016 687.13 29.3855C683.839 32.7551 679.804 34.4399 675.024 34.4399C670.244 34.4399 666.169 32.7551 662.799 29.3855C659.43 26.016 657.745 21.902 657.745 17.0436Z" fill="#172E44"/>
<path d="M730.08 205.021H703.633V64.6482H730.08V77.1077C740.502 66.6856 752.335 61.4746 765.578 61.4746C781.329 61.4746 794.298 67.2733 804.485 78.8708C814.828 90.3899 820 104.926 820 122.479C820 139.64 814.867 153.941 804.602 165.382C794.415 176.744 781.564 182.425 766.048 182.425C752.648 182.425 740.659 177.058 730.08 166.322V205.021ZM792.965 122.597C792.965 111.626 789.988 102.693 784.032 95.7969C777.998 88.8227 770.397 85.3356 761.229 85.3356C751.512 85.3356 743.637 88.7052 737.603 95.4443C731.569 102.183 728.552 111.038 728.552 122.009C728.552 132.744 731.569 141.599 737.603 148.573C743.559 155.391 751.395 158.799 761.112 158.799C770.28 158.799 777.842 155.352 783.797 148.456C789.909 141.56 792.965 132.94 792.965 122.597Z" fill="#172E44"/>
</svg>
